<svg id="Capa_1" enable-background="new 0 0 512 512" height="512" viewBox="0 0 512 512" width="512" xmlns="http://www.w3.org/2000/svg"><g><path d="m421 76c0-41.353-33.647-76-75-76s-75 34.647-75 76 33.647 75 75 75 75-33.647 75-75z"/><path d="m241 76c0-41.353-33.647-76-75-76s-75 34.647-75 76 33.647 75 75 75 75-33.647 75-75z"/><path d="m181 421c16.5 0 30-13.5 30-30s-13.5-30-30-30c-49.501 0-90-40.499-90-90 0-8.401 6.599-15 15-15s15 6.599 15 15c0 32.999 27.001 60 60 60 .901 0 1.8.3 2.701.3 5.998-17.701 22.798-30.3 42.299-30.3h30c-32.999 0-60-27.001-60-60s27.001-60 60-60 60 27.001 60 60-27.001 60-60 60h30c19.501 0 36.301 12.599 42.299 30.3.901 0 1.8-.3 2.701-.3 32.999 0 60-27.001 60-60 0-8.401 6.599-15 15-15s15 6.599 15 15c0 49.501-40.499 90-90 90-16.5 0-30 13.5-30 30s13.5 30 30 30c42.892 0 82.936-18.283 110.671-48.464 41.603-45.27 38.439-97.315 39.329-101.536 0-66.301-53.699-120-120-120h-75c-11.4 0-21.899 4.501-30 11.4-8.101-6.899-18.6-11.4-30-11.4h-75c-66.248 0-120 53.864-120 120 0 34.292 12.746 68.463 32.6 93.356 27.433 34.399 70.023 56.644 117.4 56.644z"/><circle cx="256" cy="241" r="30"/><path d="m211 442.678v69.322h90v-69.322c-17.858-10.393-30-29.526-30-51.678 0-21.632 11.552-40.428 28.72-50.984-2.318-5.293-7.577-9.016-13.72-9.016h-60c-6.143 0-11.402 3.723-13.72 9.016 17.168 10.556 28.72 29.352 28.72 50.984 0 22.152-12.142 41.285-30 51.678z"/><path d="m451 497v-91.663c-32.794 29.18-75.599 45.663-120 45.663v61h105c8.291 0 15-6.709 15-15z"/><path d="m181 451c-44.923 0-87.191-16.697-120-46.203v92.203c0 8.291 6.709 15 15 15h105z"/></g></svg>