<?xml version="1.0" standalone="no"?>
<!DOCTYPE svg PUBLIC "-//W3C//DTD SVG 20010904//EN"
 "http://www.w3.org/TR/2001/REC-SVG-20010904/DTD/svg10.dtd">
<svg version="1.0" xmlns="http://www.w3.org/2000/svg"
 width="162.000000pt" height="137.000000pt" viewBox="0 0 162.000000 137.000000"
 preserveAspectRatio="xMidYMid meet">

<g transform="translate(0.000000,137.000000) scale(0.100000,-0.100000)"
fill="#000000" stroke="none">
<path d="M618 1350 c-112 -33 -160 -161 -124 -329 44 -209 173 -334 285 -277
98 51 179 247 168 407 -7 105 -57 173 -148 199 -40 12 -143 12 -181 0z m210
-50 c59 -33 85 -87 85 -174 -1 -127 -43 -247 -111 -318 -30 -32 -43 -38 -77
-38 -105 0 -192 140 -202 326 -8 136 16 188 104 220 53 20 150 12 201 -16z"/>
<path d="M886 622 c-23 -97 -51 -173 -77 -207 -20 -24 -26 -26 -87 -23 -66 3
-67 3 -89 43 -12 22 -35 87 -52 143 -16 57 -32 106 -35 109 -10 10 -305 -69
-320 -86 -23 -26 -47 -134 -44 -197 l3 -57 54 -19 c121 -41 225 -52 481 -52
262 -1 349 8 480 50 l76 23 -7 84 c-7 97 -22 147 -49 172 -10 9 -86 34 -168
54 l-149 38 -17 -75z m-346 -24 c22 -91 61 -187 90 -218 26 -27 34 -30 93 -30
51 0 70 5 92 22 32 25 67 98 95 200 11 39 22 73 24 76 3 2 64 -10 135 -28
l130 -32 15 -39 c9 -22 19 -70 22 -107 l7 -68 -43 -13 c-113 -34 -193 -43
-425 -48 -251 -5 -371 5 -508 44 l-59 16 6 61 c9 79 23 131 39 144 12 11 227
69 259 71 11 1 19 -14 28 -51z"/>
<path d="M696 664 c-19 -18 -21 -40 -5 -50 8 -4 9 -35 4 -100 l-7 -94 40 0 39
0 -5 94 c-3 63 -1 95 7 100 26 17 -3 66 -39 66 -10 0 -26 -7 -34 -16z"/>
</g>
</svg>
